<svg width="201" height="58" viewBox="0 0 201 58" fill="none" xmlns="http://www.w3.org/2000/svg">
<path d="M71.3945 28.3613V29.6416C71.3945 31.695 71.1162 33.5381 70.5596 35.1709C70.0029 36.8037 69.2174 38.1953 68.2031 39.3457C67.1888 40.4837 65.9766 41.3558 64.5664 41.9619C63.1686 42.568 61.6162 42.8711 59.9092 42.8711C58.2145 42.8711 56.6621 42.568 55.252 41.9619C53.8542 41.3558 52.6419 40.4837 51.6152 39.3457C50.5885 38.1953 49.7907 36.8037 49.2217 35.1709C48.665 33.5381 48.3867 31.695 48.3867 29.6416V28.3613C48.3867 26.2956 48.665 24.4525 49.2217 22.832C49.7783 21.1992 50.5638 19.8076 51.5781 18.6572C52.6048 17.5069 53.8171 16.6286 55.2148 16.0225C56.625 15.4164 58.1774 15.1133 59.8721 15.1133C61.5791 15.1133 63.1315 15.4164 64.5293 16.0225C65.9395 16.6286 67.1517 17.5069 68.166 18.6572C69.1927 19.8076 69.9844 21.1992 70.541 22.832C71.11 24.4525 71.3945 26.2956 71.3945 28.3613ZM65.7725 29.6416V28.3242C65.7725 26.8893 65.6426 25.6276 65.3828 24.5391C65.123 23.4505 64.7396 22.5352 64.2324 21.793C63.7253 21.0508 63.1068 20.4942 62.377 20.1231C61.6471 19.7396 60.8122 19.5479 59.8721 19.5479C58.932 19.5479 58.097 19.7396 57.3672 20.1231C56.6497 20.4942 56.0374 21.0508 55.5303 21.793C55.0355 22.5352 54.6582 23.4505 54.3984 24.5391C54.1387 25.6276 54.0088 26.8893 54.0088 28.3242V29.6416C54.0088 31.0641 54.1387 32.3259 54.3984 33.4268C54.6582 34.5153 55.0417 35.4369 55.5488 36.1914C56.056 36.9336 56.6745 37.4964 57.4043 37.8799C58.1341 38.2634 58.9691 38.4551 59.9092 38.4551C60.8493 38.4551 61.6842 38.2634 62.4141 37.8799C63.1439 37.4964 63.7562 36.9336 64.251 36.1914C64.7458 35.4369 65.123 34.5153 65.3828 33.4268C65.6426 32.3259 65.7725 31.0641 65.7725 29.6416ZM80.4121 26.8027V42.5H75.0684V22.4238H80.0967L80.4121 26.8027ZM86.4609 22.294L86.3682 27.2481C86.1084 27.211 85.793 27.18 85.4219 27.1553C85.0632 27.1182 84.7354 27.0996 84.4385 27.0996C83.6839 27.0996 83.0283 27.1986 82.4717 27.3965C81.9274 27.582 81.4697 27.8604 81.0986 28.2315C80.7399 28.6026 80.4678 29.0541 80.2822 29.586C80.109 30.1179 80.0101 30.724 79.9854 31.4043L78.9092 31.0703C78.9092 29.7715 79.0391 28.5778 79.2988 27.4893C79.5586 26.3884 79.9359 25.4297 80.4307 24.6133C80.9378 23.7969 81.5563 23.166 82.2861 22.7207C83.016 22.2754 83.8509 22.0527 84.791 22.0527C85.0879 22.0527 85.391 22.0775 85.7002 22.127C86.0094 22.1641 86.263 22.2197 86.4609 22.294ZM101.323 22.4238H106.166V41.832C106.166 43.6628 105.758 45.2152 104.941 46.4893C104.137 47.7757 103.012 48.7468 101.564 49.4024C100.117 50.0703 98.4349 50.4043 96.5176 50.4043C95.6764 50.4043 94.7858 50.293 93.8457 50.0703C92.918 49.8477 92.0273 49.5013 91.1738 49.0313C90.3327 48.5612 89.6276 47.9675 89.0586 47.25L91.415 44.0957C92.0335 44.8132 92.751 45.3698 93.5674 45.7656C94.3838 46.1738 95.2868 46.3779 96.2764 46.3779C97.2412 46.3779 98.0576 46.1986 98.7256 45.8399C99.3936 45.4935 99.9069 44.9802 100.266 44.2998C100.624 43.6319 100.804 42.8216 100.804 41.8692V27.0625L101.323 22.4238ZM87.8154 32.7031V32.3135C87.8154 30.7796 88.001 29.388 88.3721 28.1387C88.7555 26.877 89.2936 25.7946 89.9863 24.8916C90.6914 23.9886 91.5449 23.2897 92.5469 22.7949C93.5488 22.3001 94.6807 22.0527 95.9424 22.0527C97.2783 22.0527 98.3978 22.3001 99.3008 22.7949C100.204 23.2897 100.946 23.9948 101.527 24.9102C102.109 25.8132 102.56 26.8832 102.882 28.1201C103.216 29.3447 103.476 30.6869 103.661 32.1465V33C103.476 34.3978 103.197 35.6966 102.826 36.8965C102.455 38.0964 101.966 39.1478 101.36 40.0508C100.754 40.9414 99.9997 41.6341 99.0967 42.1289C98.2061 42.6237 97.1423 42.8711 95.9053 42.8711C94.6683 42.8711 93.5488 42.6175 92.5469 42.1104C91.5573 41.6032 90.71 40.8919 90.0049 39.9766C89.2998 39.0612 88.7555 37.985 88.3721 36.7481C88.001 35.5111 87.8154 34.1628 87.8154 32.7031ZM93.1592 32.3135V32.7031C93.1592 33.5319 93.2396 34.305 93.4004 35.0225C93.5612 35.7399 93.8086 36.377 94.1426 36.9336C94.4889 37.4779 94.9157 37.9046 95.4229 38.2139C95.9424 38.5108 96.5547 38.6592 97.2598 38.6592C98.237 38.6592 99.0348 38.4551 99.6533 38.0469C100.272 37.6263 100.736 37.0511 101.045 36.3213C101.354 35.5915 101.534 34.7503 101.583 33.7979V31.3672C101.558 30.5879 101.453 29.889 101.268 29.2705C101.082 28.6397 100.822 28.1016 100.488 27.6563C100.154 27.211 99.7214 26.8646 99.1895 26.6172C98.6576 26.3698 98.0267 26.2461 97.2969 26.2461C96.5918 26.2461 95.9795 26.4069 95.46 26.7285C94.9528 27.0378 94.526 27.4645 94.1797 28.0088C93.8457 28.5531 93.5921 29.1963 93.4189 29.9385C93.2458 30.6683 93.1592 31.46 93.1592 32.3135ZM121.158 37.9727V29.0293C121.158 28.3861 121.053 27.8356 120.843 27.3779C120.632 26.9079 120.305 26.543 119.859 26.2832C119.426 26.0235 118.864 25.8936 118.171 25.8936C117.577 25.8936 117.064 25.9987 116.631 26.209C116.198 26.4069 115.864 26.6976 115.629 27.0811C115.394 27.4522 115.276 27.8913 115.276 28.3985H109.933C109.933 27.5449 110.131 26.7347 110.526 25.9678C110.922 25.2009 111.497 24.5267 112.252 23.9453C113.007 23.3516 113.903 22.8877 114.942 22.5537C115.994 22.2197 117.169 22.0527 118.468 22.0527C120.026 22.0527 121.412 22.3125 122.624 22.832C123.836 23.3516 124.789 24.1309 125.481 25.1699C126.187 26.209 126.539 27.5078 126.539 29.0664V37.6572C126.539 38.7582 126.607 39.6611 126.743 40.3662C126.879 41.0589 127.077 41.6651 127.337 42.1846V42.5H121.938C121.678 41.9557 121.48 41.2754 121.344 40.459C121.22 39.6302 121.158 38.8014 121.158 37.9727ZM121.863 30.2725L121.9 33.2969H118.913C118.208 33.2969 117.596 33.3773 117.076 33.5381C116.557 33.6989 116.13 33.9277 115.796 34.2246C115.462 34.5091 115.215 34.8431 115.054 35.2266C114.905 35.61 114.831 36.0306 114.831 36.4883C114.831 36.946 114.936 37.3604 115.146 37.7315C115.357 38.0902 115.66 38.3747 116.056 38.585C116.451 38.7829 116.915 38.8819 117.447 38.8819C118.251 38.8819 118.95 38.721 119.544 38.3994C120.138 38.0778 120.595 37.682 120.917 37.2119C121.251 36.7419 121.424 36.2966 121.437 35.876L122.847 38.1397C122.649 38.6468 122.377 39.1725 122.03 39.7168C121.696 40.2611 121.27 40.7744 120.75 41.2569C120.23 41.7269 119.606 42.1166 118.876 42.4258C118.146 42.7227 117.28 42.8711 116.278 42.8711C115.004 42.8711 113.848 42.6175 112.809 42.1104C111.782 41.5908 110.965 40.8796 110.359 39.9766C109.766 39.0612 109.469 38.0222 109.469 36.8594C109.469 35.808 109.667 34.874 110.062 34.0576C110.458 33.2412 111.04 32.5547 111.807 31.9981C112.586 31.4291 113.557 31.0023 114.72 30.7178C115.882 30.4209 117.231 30.2725 118.765 30.2725H121.863ZM135.891 26.71V42.5H130.547V22.4238H135.557L135.891 26.71ZM135.111 31.7569H133.664C133.664 30.2725 133.856 28.9365 134.239 27.749C134.623 26.5492 135.161 25.5287 135.854 24.6875C136.546 23.834 137.369 23.1846 138.321 22.7393C139.286 22.2816 140.362 22.0527 141.55 22.0527C142.49 22.0527 143.35 22.1888 144.129 22.461C144.908 22.7331 145.576 23.166 146.133 23.7598C146.702 24.3535 147.135 25.139 147.432 26.1162C147.741 27.0934 147.896 28.2871 147.896 29.6973V42.5H142.515V29.6787C142.515 28.7881 142.391 28.0954 142.144 27.6006C141.896 27.1058 141.531 26.7595 141.049 26.5615C140.579 26.3513 139.997 26.2461 139.305 26.2461C138.587 26.2461 137.963 26.3884 137.431 26.6729C136.911 26.9574 136.478 27.3532 136.132 27.8604C135.798 28.3552 135.544 28.9365 135.371 29.6045C135.198 30.2725 135.111 30.9899 135.111 31.7569ZM157.6 22.4238V42.5H152.237V22.4238H157.6ZM151.903 17.1914C151.903 16.4121 152.175 15.7689 152.72 15.2617C153.264 14.7546 153.994 14.501 154.909 14.501C155.812 14.501 156.536 14.7546 157.08 15.2617C157.637 15.7689 157.915 16.4121 157.915 17.1914C157.915 17.9707 157.637 18.6139 157.08 19.1211C156.536 19.6283 155.812 19.8819 154.909 19.8819C153.994 19.8819 153.264 19.6283 152.72 19.1211C152.175 18.6139 151.903 17.9707 151.903 17.1914ZM170.31 38.6963C170.965 38.6963 171.547 38.5726 172.054 38.3252C172.561 38.0654 172.957 37.7067 173.241 37.249C173.538 36.779 173.693 36.2285 173.705 35.5977H178.733C178.721 37.0078 178.344 38.2634 177.602 39.3643C176.859 40.4528 175.864 41.3125 174.614 41.9434C173.365 42.5619 171.967 42.8711 170.421 42.8711C168.862 42.8711 167.502 42.6113 166.339 42.0918C165.188 41.5723 164.23 40.8548 163.463 39.9395C162.696 39.0117 162.121 37.9356 161.737 36.711C161.354 35.474 161.162 34.1504 161.162 32.7402V32.2022C161.162 30.7796 161.354 29.4561 161.737 28.2315C162.121 26.9945 162.696 25.9183 163.463 25.0029C164.23 24.0752 165.188 23.3516 166.339 22.832C167.489 22.3125 168.838 22.0527 170.384 22.0527C172.029 22.0527 173.47 22.3682 174.707 22.999C175.956 23.6299 176.934 24.5329 177.639 25.708C178.356 26.8708 178.721 28.25 178.733 29.8457H173.705C173.693 29.1777 173.55 28.5716 173.278 28.0274C173.019 27.4831 172.635 27.0501 172.128 26.7285C171.633 26.3945 171.021 26.2276 170.291 26.2276C169.512 26.2276 168.875 26.3945 168.38 26.7285C167.885 27.0501 167.502 27.4955 167.229 28.0645C166.957 28.6211 166.766 29.2582 166.654 29.9756C166.555 30.6807 166.506 31.4229 166.506 32.2022V32.7402C166.506 33.5195 166.555 34.2679 166.654 34.9854C166.753 35.7028 166.939 36.3399 167.211 36.8965C167.495 37.4531 167.885 37.8923 168.38 38.2139C168.875 38.5355 169.518 38.6963 170.31 38.6963ZM187.176 13.9815V42.5H181.832V13.9815H187.176ZM199.83 22.4238L191.109 32.3692L186.434 37.1006L184.485 33.2412L188.196 28.5283L193.41 22.4238H199.83ZM194.282 42.5L188.345 33.2227L192.037 29.9942L200.442 42.5H194.282Z" fill="#3D5B58"/>
<path d="M2.85059 43.0684H20.2909H37.7312" stroke="#3D5B58" stroke-width="2" stroke-miterlimit="10"/>
<path d="M6.79102 49.5L20.291 49.5L33.791 49.5" stroke="#3D5B58" stroke-width="2" stroke-miterlimit="10"/>
<path d="M19.791 2.50002L19.791 9.50002L19.791 16.5" stroke="#3D5B58" stroke-width="2" stroke-miterlimit="10"/>
<path d="M19.8657 15.7842V42.2158" stroke="#3D5B58" stroke-width="2" stroke-miterlimit="10"/>
<path d="M30.9254 5.55275L19.8657 16.637" stroke="#3D5B58" stroke-width="2" stroke-miterlimit="10"/>
<path d="M35.1792 9.81593L19.8657 25.1633" stroke="#3D5B58" stroke-width="2" stroke-miterlimit="10"/>
<path d="M37.7314 16.6367L19.8657 33.6894" stroke="#3D5B58" stroke-width="2" stroke-miterlimit="10"/>
<path d="M38.5821 24.3106L19.8657 43.0685" stroke="#3D5B58" stroke-width="2" stroke-miterlimit="10"/>
<path d="M38.582 32.8369L28.373 43.0685" stroke="#3D5B58" stroke-width="2" stroke-miterlimit="10"/>
<path d="M2 32.8369L12.209 43.0685" stroke="#3D5B58" stroke-width="2" stroke-miterlimit="10"/>
<path d="M9.65674 5.55275L19.8657 16.637" stroke="#3D5B58" stroke-width="2" stroke-miterlimit="10"/>
<path d="M5.40283 9.81593L19.8655 25.1633" stroke="#3D5B58" stroke-width="2" stroke-miterlimit="10"/>
<path d="M2.85059 15.7842L19.8655 33.6895" stroke="#3D5B58" stroke-width="2" stroke-miterlimit="10"/>
<path d="M2 23.458L19.8657 42.2159" stroke="#3D5B58" stroke-width="2" stroke-miterlimit="10"/>
<path d="M1 36.9772C1 47.9278 9.6083 56.8579 20.291 56.8579C30.9755 56.8579 39.5839 47.928 39.5821 36.9772C39.5821 36.9772 39.5821 36.9771 39.5821 36.9771V21.0228C39.5821 10.0742 30.9758 1.14211 20.291 1.14211C9.60823 1.14211 1 10.0742 1 21.0228V36.9772Z" stroke="#3D5B58" stroke-width="2" stroke-miterlimit="10"/>
</svg>
